<svg version="1.1" id="Layer_1" xmlns="http://www.w3.org/2000/svg" xmlns:xlink="http://www.w3.org/1999/xlink" x="0px" y="0px"
	 width="100%" viewBox="0 0 400 400" enable-background="new 0 0 400 400" xml:space="preserve">
<path fill="#010101" opacity="1.000000" stroke="none" 
	d="
M374.000000,401.000000 
	C249.372131,401.000000 125.244255,401.000000 1.058193,401.000000 
	C1.058193,267.747131 1.058193,134.494247 1.058193,1.120683 
	C134.211121,1.120683 267.422394,1.120683 400.816833,1.120683 
	C400.816833,134.333115 400.816833,267.666565 400.816833,401.000000 
	C392.160980,401.000000 383.330505,401.000000 374.000000,401.000000 
M209.264389,226.057465 
	C196.946472,229.938766 187.083191,222.857040 186.973602,209.957199 
	C186.890213,200.141464 186.964142,190.324432 186.950974,180.508011 
	C186.947845,178.166840 187.146103,175.194687 183.789307,175.655792 
	C182.640533,175.813599 181.091797,178.666916 181.046280,180.324936 
	C180.781540,189.967926 180.903198,199.621689 180.907303,209.271820 
	C180.913071,222.761719 190.241333,233.045319 202.498367,233.088455 
	C215.607773,233.134583 224.998489,223.619186 225.196701,209.852371 
	C225.337997,200.037933 225.211334,190.219742 225.222122,180.403244 
	C225.224747,178.018738 225.390015,175.111511 222.048660,175.589371 
	C220.883606,175.755981 219.316406,178.574448 219.272537,180.217590 
	C219.015091,189.860657 219.286194,199.517242 219.073761,209.162521 
	C219.014954,211.832764 217.916000,214.480072 216.480286,217.091782 
	C210.095779,217.747391 209.435593,218.605621 209.264389,226.057465 
M252.571274,175.802673 
	C248.990829,176.140625 245.766113,170.764969 241.239380,175.694305 
	C240.803589,177.728470 239.995834,179.761337 239.988724,181.796997 
	C239.904388,205.942245 239.937714,230.087921 239.948090,254.233475 
	C239.948654,255.563019 239.678467,257.035126 240.157562,258.180084 
	C240.595932,259.227692 242.010239,260.712250 242.760300,260.588226 
	C243.917557,260.396820 245.256790,259.183960 245.807693,258.056793 
	C246.337418,256.972961 245.982788,255.447464 245.983612,254.116013 
	C245.989441,244.735687 245.986710,235.355347 245.986710,224.941360 
	C253.638809,232.980560 261.825348,235.540985 271.010345,230.982529 
	C280.511353,226.267227 284.336823,217.980606 283.942902,207.549255 
	C283.823578,204.389877 283.958435,201.221771 283.910980,198.058655 
	C283.650482,180.693787 269.798279,170.793564 252.571274,175.802673 
M126.725060,178.341537 
	C132.645905,194.229706 138.695435,210.072235 144.361923,226.050598 
	C145.315536,228.739594 145.508392,232.358063 144.513062,234.957504 
	C141.246002,243.489883 139.077637,253.194946 127.950829,255.614914 
	C127.330650,255.749802 126.497086,257.682007 126.761055,258.421173 
	C127.114525,259.410950 128.720596,260.896057 129.307114,260.703247 
	C132.524246,259.645599 136.392624,258.891541 138.532776,256.617310 
	C141.989090,252.944504 145.072632,248.484222 146.914948,243.805756 
	C154.404190,224.787125 161.361923,205.559204 168.512985,186.407471 
	C169.384750,184.072693 170.595306,181.786880 170.968796,179.373169 
	C171.186844,177.964142 170.054916,176.346222 169.530334,174.822266 
	C168.153290,175.624664 166.309891,176.113480 165.509552,177.303665 
	C164.337585,179.046509 163.897736,181.286484 163.172226,183.323990 
	C158.684982,195.925720 154.205109,208.530075 149.399811,222.041733 
	C148.398315,219.611023 147.729767,218.131027 147.171310,216.610596 
	C142.413696,203.657211 137.727997,190.676865 132.852371,177.768204 
	C132.363525,176.473938 130.852158,174.925232 129.641373,174.758575 
	C128.762558,174.637619 127.596336,176.604904 126.725060,178.341537 
M294.943115,225.155899 
	C292.905701,228.290237 293.525360,231.273392 296.835663,232.408981 
	C298.497192,232.979004 301.443878,231.664032 302.894867,230.257858 
	C303.707642,229.470139 303.261475,226.310196 302.307861,225.003342 
	C300.497833,222.522751 297.831390,222.587936 294.943115,225.155899 
z"/>
<path fill="#EBEBEB" opacity="1.000000" stroke="none" 
	d="
M253.266495,176.140945 
	C269.798279,170.793564 283.650482,180.693787 283.910980,198.058655 
	C283.958435,201.221771 283.823578,204.389877 283.942902,207.549255 
	C284.336823,217.980606 280.511353,226.267227 271.010345,230.982529 
	C261.825348,235.540985 253.638809,232.980560 245.986710,224.941360 
	C245.986710,235.355347 245.989441,244.735687 245.983612,254.116013 
	C245.982788,255.447464 246.337418,256.972961 245.807693,258.056793 
	C245.256790,259.183960 243.917557,260.396820 242.760300,260.588226 
	C242.010239,260.712250 240.595932,259.227692 240.157562,258.180084 
	C239.678467,257.035126 239.948654,255.563019 239.948090,254.233475 
	C239.937714,230.087921 239.904388,205.942245 239.988724,181.796997 
	C239.995834,179.761337 240.803589,177.728470 241.994965,175.513367 
	C244.222382,177.374161 245.694199,179.415878 247.132584,181.411179 
	C248.698837,180.065460 250.982666,178.103210 253.266495,176.140945 
M277.910095,199.705627 
	C277.851013,198.044342 277.989136,196.347672 277.698669,194.727890 
	C276.442139,187.721237 272.331360,182.883743 265.602020,180.854462 
	C259.490204,179.011414 254.115128,180.969650 249.873215,185.779739 
	C245.176956,191.105072 244.034897,213.975204 248.150635,219.799423 
	C252.455200,225.890869 259.503052,228.684052 265.960632,226.857910 
	C272.111115,225.118607 277.326508,218.554153 277.789398,211.626938 
	C278.032990,207.981369 277.877563,204.309128 277.910095,199.705627 
z"/>
<path fill="#EAEAEA" opacity="1.000000" stroke="none" 
	d="
M126.641663,177.991302 
	C127.596336,176.604904 128.762558,174.637619 129.641373,174.758575 
	C130.852158,174.925232 132.363525,176.473938 132.852371,177.768204 
	C137.727997,190.676865 142.413696,203.657211 147.171310,216.610596 
	C147.729767,218.131027 148.398315,219.611023 149.399811,222.041733 
	C154.205109,208.530075 158.684982,195.925720 163.172226,183.323990 
	C163.897736,181.286484 164.337585,179.046509 165.509552,177.303665 
	C166.309891,176.113480 168.153290,175.624664 169.530334,174.822266 
	C170.054916,176.346222 171.186844,177.964142 170.968796,179.373169 
	C170.595306,181.786880 169.384750,184.072693 168.512985,186.407471 
	C161.361923,205.559204 154.404190,224.787125 146.914948,243.805756 
	C145.072632,248.484222 141.989090,252.944504 138.532776,256.617310 
	C136.392624,258.891541 132.524246,259.645599 129.307114,260.703247 
	C128.720596,260.896057 127.114525,259.410950 126.761055,258.421173 
	C126.497086,257.682007 127.330650,255.749802 127.950829,255.614914 
	C139.077637,253.194946 141.246002,243.489883 144.513062,234.957504 
	C145.508392,232.358063 145.315536,228.739594 144.361923,226.050598 
	C138.695435,210.072235 132.645905,194.229706 126.641663,177.991302 
z"/>
<path fill="#E9E9E9" opacity="1.000000" stroke="none" 
	d="
M217.294281,217.137909 
	C217.916000,214.480072 219.014954,211.832764 219.073761,209.162521 
	C219.286194,199.517242 219.015091,189.860657 219.272537,180.217590 
	C219.316406,178.574448 220.883606,175.755981 222.048660,175.589371 
	C225.390015,175.111511 225.224747,178.018738 225.222122,180.403244 
	C225.211334,190.219742 225.337997,200.037933 225.196701,209.852371 
	C224.998489,223.619186 215.607773,233.134583 202.498367,233.088455 
	C190.241333,233.045319 180.913071,222.761719 180.907303,209.271820 
	C180.903198,199.621689 180.781540,189.967926 181.046280,180.324936 
	C181.091797,178.666916 182.640533,175.813599 183.789307,175.655792 
	C187.146103,175.194687 186.947845,178.166840 186.950974,180.508011 
	C186.964142,190.324432 186.890213,200.141464 186.973602,209.957199 
	C187.083191,222.857040 196.946472,229.938766 209.934677,225.798004 
	C212.834747,222.738342 215.064514,219.938126 217.294281,217.137909 
z"/>
<path fill="#E5E5E5" opacity="1.000000" stroke="none" 
	d="
M295.168213,224.883087 
	C297.831390,222.587936 300.497833,222.522751 302.307861,225.003342 
	C303.261475,226.310196 303.707642,229.470139 302.894867,230.257858 
	C301.443878,231.664032 298.497192,232.979004 296.835663,232.408981 
	C293.525360,231.273392 292.905701,228.290237 295.168213,224.883087 
z"/>
<path fill="#171717" opacity="1.000000" stroke="none" 
	d="
M252.918884,175.971802 
	C250.982666,178.103210 248.698837,180.065460 247.132584,181.411179 
	C245.694199,179.415878 244.222382,177.374161 242.342438,175.236435 
	C245.766113,170.764969 248.990829,176.140625 252.918884,175.971802 
z"/>
<path fill="#171717" opacity="1.000000" stroke="none" 
	d="
M216.887283,217.114853 
	C215.064514,219.938126 212.834747,222.738342 210.277863,225.559250 
	C209.435593,218.605621 210.095779,217.747391 216.887283,217.114853 
z"/>
<path fill="#080808" opacity="1.000000" stroke="none" 
	d="
M277.906189,200.177277 
	C277.877563,204.309128 278.032990,207.981369 277.789398,211.626938 
	C277.326508,218.554153 272.111115,225.118607 265.960632,226.857910 
	C259.503052,228.684052 252.455200,225.890869 248.150635,219.799423 
	C244.034897,213.975204 245.176956,191.105072 249.873215,185.779739 
	C254.115128,180.969650 259.490204,179.011414 265.602020,180.854462 
	C272.331360,182.883743 276.442139,187.721237 277.698669,194.727890 
	C277.989136,196.347672 277.851013,198.044342 277.906189,200.177277 
z"/>
</svg>